<?xml version="1.0" encoding="UTF-8"?>
<svg xmlns="http://www.w3.org/2000/svg" width="139" height="48" viewBox="0 0 139 48" fill="none">
  <path fill-rule="evenodd" clip-rule="evenodd" d="M13.3481 11.8037C20.2876 11.8037 25.913 17.4406 25.913 24.3939C25.913 31.3472 20.2876 36.984 13.3481 36.984C6.40874 36.984 0.783203 31.3472 0.783203 24.3939C0.783203 17.4406 6.40874 11.8037 13.3481 11.8037Z" fill="#EDD0D4"></path>
  <path fill-rule="evenodd" clip-rule="evenodd" d="M10.4891 13.6613C10.7118 13.5644 10.9345 13.4674 11.1572 13.3705C11.2677 12.8369 11.2889 12.2314 11.2892 11.609C10.9722 11.4036 10.866 10.8548 11.017 10.5205C10.873 9.74488 11.1405 8.61026 11.7983 8.12318C12.1207 7.88441 12.4901 7.75022 12.8898 7.78489C13.2837 7.81903 13.6383 7.96611 13.9245 8.31025C13.999 8.35918 14.0684 8.41535 14.133 8.47802C14.7075 9.03501 14.932 9.95963 14.6091 10.7033C14.5493 11.7382 14.1313 12.6613 13.3389 13.3455C13.2525 13.5488 13.1856 13.757 13.2317 13.9936C13.5538 14.4669 13.9192 14.9249 13.9822 15.2151C14.8606 15.5167 15.6279 16.0102 16.2753 16.7106C16.8593 17.3488 17.6706 17.7901 18.4693 18.2147C20.6076 18.5213 21.4841 19.3784 23.3864 19.9974C23.4885 20.0306 23.5898 20.0618 23.6909 20.0981C24.2472 20.298 24.3118 20.4058 24.7015 20.7731C24.9891 21.0441 25.264 21.2798 25.5217 21.4677C25.807 21.6729 26.0393 21.9049 26.1816 22.1823C26.3419 22.4397 26.5638 22.6675 26.6627 22.9547C26.7538 23.2193 26.673 23.4964 26.4944 23.1272C26.3832 22.8976 26.2379 22.6898 26.0496 22.6143C26.0083 22.78 26.0984 23.9413 25.9599 23.8921C25.8759 23.8622 25.8238 23.7728 25.798 23.628C25.8332 23.3343 25.7749 23.0738 25.7155 22.8137C25.6393 22.6169 25.5869 22.3401 25.4118 22.2143C25.3044 22.137 25.1821 22.0857 25.0392 22.0701C24.8262 22.059 24.8012 22.1628 24.9237 22.3567C25.0071 22.5255 25.0839 22.6974 25.1749 22.8625C25.242 22.9842 25.3039 23.2756 25.0945 23.2033C24.9533 23.1546 24.4292 22.1664 24.2803 22.0534C24.0848 21.8376 24.013 21.5594 23.9504 21.2765C23.8919 21.1077 23.8044 20.9861 23.6729 20.9361C23.5928 20.9057 23.3781 20.8818 23.2786 20.8623C22.6097 20.7311 21.9275 20.6397 21.2422 20.558C19.5969 20.1874 19.3505 19.8805 17.9485 19.3437C16.8517 19.0051 15.8478 18.486 14.9049 17.8482C14.1624 17.4515 13.6401 17.8976 13.181 18.4796C12.8026 18.9665 12.4566 19.4579 12.2324 19.967C12.2357 20.1638 12.1769 20.3296 12.0922 20.4821C12.1954 20.6609 12.2694 20.8462 12.2736 21.0471C12.5775 21.2112 12.8029 21.4149 12.9748 21.6454C14.5651 21.1618 16.7036 21.0414 18.4898 21.0845C19.6806 21.1813 19.5649 20.7443 21.1531 21.3139C21.4325 21.4141 21.1412 21.9465 20.974 22.0945C20.3646 22.634 19.6853 23.0648 18.987 23.4658C18.0447 24.0069 16.7788 24.0661 16.3904 24.4439C17.9982 25.0882 18.4535 25.6678 19.9355 26.7222C20.7846 27.3263 20.8235 28.1765 20.0113 28.8467C19.6458 29.1484 19.2803 29.4501 18.9147 29.7517C18.2614 30.1871 17.6517 30.6929 17.1083 31.3055C16.8124 31.6333 16.5231 31.9712 16.2551 32.3413C16.0142 32.6739 15.8197 32.9529 15.5542 33.2738C15.1284 33.7886 14.5245 34.1763 13.9986 34.5876C13.5587 34.8922 13.1044 35.2779 12.6645 35.5826C13.126 38.0931 12.9708 39.1806 12.8068 41.7209C13.0179 42.2164 13.2799 42.574 13.7429 42.8428C14.0452 43.0183 13.9839 43.3474 13.7938 43.5802C13.6295 43.7814 13.4653 43.9826 13.301 44.1837C13.0108 44.5392 13.041 44.4356 13.0659 44.8965C13.0983 45.4963 13.4025 46.7616 13.1202 47.1882C12.947 47.1965 12.7737 47.2048 12.6005 47.2131C12.0403 46.6187 11.8716 45.8271 11.619 45.0777C11.4719 44.5803 11.3668 44.0714 11.4623 43.5073C11.3577 42.452 11.2533 41.3968 11.1488 40.3415C10.9012 38.6925 10.6535 37.0434 10.4059 35.3943C10.3346 34.919 10.0725 34.9625 10.0188 34.3092C9.99095 34.2051 9.9631 34.101 9.93524 33.997C9.93241 33.9858 9.93052 33.9742 9.92632 33.9636C9.1555 32.0506 8.77823 31.1645 8.49226 28.6076C7.63231 28.9505 7.10739 28.3582 6.46252 28.6231C5.62377 28.9677 4.81046 29.1711 3.99857 29.3667C2.96585 29.6155 1.69814 29.4036 0.603207 29.3086C0.334938 29.2853 -0.128004 29.1978 0.033298 28.8883C0.156741 28.6514 7.09247 24.6886 7.93193 24.1971C8.11074 23.5656 8.19581 22.923 8.18764 22.2694C8.14639 21.6518 8.10513 21.0341 8.06392 20.4165C7.93467 19.893 7.80547 19.3696 7.67627 18.8461C7.58606 18.3673 7.5296 17.8846 7.62674 17.3837C7.56519 16.7046 7.54862 16.0445 7.98357 15.5746C8.25109 15.2854 8.44364 14.9233 8.65776 14.5919C8.45303 13.7568 8.29438 12.9088 8.04352 12.0866C7.78314 11.2332 7.59828 10.6664 7.55249 9.7394C7.50297 9.51229 7.45346 9.28518 7.40399 9.05807C7.31609 8.76709 7.22814 8.47612 7.14025 8.18514C7.05292 7.89616 6.89062 7.66315 6.84304 7.35729C6.76198 6.83649 6.78734 6.09235 6.72762 5.52671C6.70581 4.74822 6.66058 3.97306 6.48432 3.21683C6.17238 2.59322 5.64831 2.52774 5.36257 1.90808C5.13462 1.77431 4.39032 1.18699 5.18933 1.42618C5.35016 1.49128 5.45741 1.58956 5.60176 1.55494C5.26009 1.15431 4.95307 1.16416 4.43385 0.808753C4.04275 0.541031 4.19976 0.445351 4.48054 0.590102C4.67455 0.690058 4.86805 0.783644 5.02855 0.840375C4.87272 0.690156 4.90114 0.60014 5.15227 0.582831C5.1249 0.547975 4.81778 0.22694 4.76982 0.0592683C4.72856 -0.0850069 4.98833 0.0741139 5.03842 0.116721C5.49225 0.50266 5.72827 0.567093 6.04314 1.03154C6.22341 0.684025 7.04196 2.38337 7.20614 2.6518C7.32991 3.01182 7.45364 3.3719 7.57737 3.73197C7.67225 4.17093 7.76709 4.60994 7.86197 5.04895C8.06821 5.79671 8.27441 6.54452 8.4806 7.29234C8.53565 7.86563 8.59064 8.43898 8.64563 9.01228C8.82983 9.7047 9.01402 10.3972 9.19822 11.0896C9.28073 11.3 9.3632 11.5106 9.44567 11.721C9.65739 12.07 9.86911 12.419 10.0808 12.768C10.177 12.9868 10.2732 13.2056 10.3695 13.4244C10.4093 13.5034 10.4492 13.5823 10.4891 13.6613ZM12.2514 34.4853C12.567 33.9771 12.9476 33.4951 13.3731 33.0312C13.3731 32.7847 13.3731 32.5382 13.3731 32.2917C13.3796 31.9627 13.3795 31.5383 13.8763 31.6436C14.1054 31.6119 14.3372 31.6005 14.5774 31.6519C14.6809 31.5292 14.8176 31.4202 15.0146 31.3362C15.2565 30.9456 15.4985 30.5551 15.7404 30.1646C15.8966 29.4768 16.1093 28.7968 16.8292 28.187C15.9243 27.461 13.3451 27.6637 12.0451 26.4587C11.8136 26.6139 11.5618 26.6914 11.3028 26.7412C11.6049 28.1465 11.8954 29.5639 11.7977 31.3943C12.0326 32.4246 12.1314 33.4549 12.2514 34.4853Z" fill="#F6F6F6"></path>
  <path fill-rule="evenodd" clip-rule="evenodd" d="M12.5645 46.4258C18.2027 46.4258 22.7734 46.7781 22.7734 47.2127C22.7734 47.6473 18.2027 47.9996 12.5645 47.9996C6.92615 47.9996 2.35547 47.6473 2.35547 47.2127C2.35547 46.7781 6.92615 46.4258 12.5645 46.4258Z" fill="#F6F6F6"></path>
  <path fill-rule="evenodd" clip-rule="evenodd" d="M43.9785 26.7539H128.792V27.0164H43.9785V26.7539Z" fill="#EDD0D4"></path>
  <path fill-rule="evenodd" clip-rule="evenodd" d="M43.1934 36.0019L43.605 35.9049V33.0595L43.1934 32.9625V32.8652H45.0778V32.9625L44.701 33.0595V35.9371H45.5915V33.0595L45.2146 32.9625V32.8652H47.0646V32.9625L46.6879 33.0595V35.9371H47.5783V33.0595L47.2018 32.9625V32.8652H49.0856V32.9625L48.674 33.0595V35.9049L49.0856 36.0019V36.099H43.1934V36.0019ZM52.5381 34.3527C52.6846 34.3527 52.8112 34.3679 52.9184 34.3978C53.0257 34.4282 53.1182 34.4681 53.1963 34.5178C53.2735 34.5671 53.3366 34.6258 53.3842 34.6923C53.4321 34.7594 53.4701 34.829 53.4973 34.9025L53.8401 35.9049L54.1825 36.0019V36.099H53.4632C53.2073 36.099 53.0076 36.0436 52.8637 35.934C52.72 35.8241 52.6227 35.6956 52.5724 35.5493L52.1955 34.482H51.7159V35.9049L52.1271 36.0019V36.099H50.209V36.0019L50.6202 35.9049V33.0595L50.209 32.9625V32.8652H52.1271V32.9625L51.7159 33.0595V34.3204H51.956C52.093 34.3204 52.2093 34.2783 52.3053 34.1942C52.4016 34.1101 52.4674 34.0124 52.5042 33.8999L52.6753 33.3179C52.7256 33.1541 52.802 33.0271 52.9049 32.9365C53.0076 32.8458 53.1366 32.8004 53.2919 32.8004C53.4973 32.8004 53.6572 32.8523 53.7715 32.9558C53.8854 33.0595 53.9428 33.2018 53.9428 33.3824C53.9428 33.5464 53.8962 33.6734 53.8023 33.7643C53.7089 33.8549 53.5842 33.8999 53.4289 33.8999C53.3926 33.8999 53.357 33.899 53.3225 33.8968C53.2882 33.8946 53.2598 33.8913 53.2369 33.887C53.2051 33.883 53.1778 33.8764 53.1547 33.8675V32.9949C53.0224 33.0248 52.931 33.1325 52.8807 33.3178L52.7096 33.8999C52.682 33.9907 52.6481 34.0648 52.6069 34.1233C52.5657 34.1813 52.5247 34.2276 52.4831 34.2622C52.4333 34.305 52.3832 34.3355 52.3325 34.3526L52.5381 34.3527ZM56.882 36.0664C56.9597 36.0664 57.0371 36.0428 57.1146 35.9955C57.1925 35.9479 57.2619 35.865 57.3238 35.7464C57.3853 35.6277 57.4356 35.4662 57.4745 35.2613C57.513 35.0565 57.5325 34.7968 57.5325 34.482C57.5325 34.1671 57.513 33.9077 57.4745 33.7028C57.4356 33.4983 57.3853 33.3362 57.3238 33.2177C57.2619 33.0991 57.1925 33.0162 57.1146 32.9688C57.0371 32.9213 56.9597 32.8975 56.882 32.8975C56.8039 32.8975 56.7267 32.9213 56.6486 32.9688C56.5711 33.0162 56.5015 33.0991 56.44 33.2177C56.3785 33.3362 56.3278 33.4983 56.2892 33.7028C56.2503 33.9077 56.2309 34.1671 56.2309 34.482C56.2309 34.7968 56.2503 35.0565 56.2892 35.2613C56.3278 35.4662 56.3785 35.6277 56.44 35.7464C56.5015 35.865 56.5711 35.9479 56.6486 35.9955C56.7267 36.0428 56.8039 36.0664 56.882 36.0664ZM56.882 32.7686C57.1651 32.7686 57.4186 32.8073 57.6423 32.8845C57.866 32.9625 58.0565 33.0756 58.2142 33.2244C58.3717 33.3729 58.4914 33.5531 58.5738 33.7643C58.6558 33.9755 58.6972 34.2148 58.6972 34.482C58.6972 34.7494 58.6558 34.9887 58.5738 35.1998C58.4914 35.4112 58.3717 35.5911 58.2142 35.7401C58.0565 35.8888 57.866 36.0019 57.6423 36.0794C57.4186 36.1572 57.1651 36.1959 56.882 36.1959C56.5985 36.1959 56.3451 36.1572 56.1211 36.0794C55.8974 36.0019 55.7069 35.8888 55.5492 35.7401C55.3917 35.5911 55.272 35.4112 55.1895 35.1998C55.1071 34.9887 55.0661 34.7494 55.0661 34.482C55.0661 34.2148 55.1071 33.9755 55.1895 33.7643C55.272 33.5531 55.3917 33.3729 55.5492 33.2244C55.7069 33.0756 55.8974 32.9625 56.1211 32.8845C56.3451 32.8073 56.5985 32.7686 56.882 32.7686ZM60.8481 33.0914L60.3686 32.9625V32.8652H63.5544V32.9625L63.1434 33.0595V35.9049L63.5544 36.0019V36.099H61.6365V36.0019L62.047 35.9049V33.0271H61.0535L60.9165 34.9995C60.9032 35.2196 60.871 35.4047 60.8208 35.5558C60.7707 35.7065 60.7101 35.8296 60.6396 35.9242C60.5688 36.0189 60.4898 36.088 60.4031 36.1314C60.3162 36.1741 60.2247 36.1959 60.1289 36.1959C59.9235 36.1959 59.7636 36.1442 59.6495 36.0407C59.5352 35.9371 59.4778 35.7947 59.4778 35.6139C59.4778 35.4672 59.5298 35.3442 59.6325 35.2452C59.7352 35.1461 59.8551 35.0966 59.9917 35.0966C60.0284 35.0966 60.0618 35.0984 60.0914 35.1029C60.1209 35.1074 60.1492 35.1112 60.177 35.1159C60.2042 35.1204 60.234 35.1245 60.2661 35.129V36.0019C60.3069 35.9847 60.3518 35.9578 60.3997 35.9208C60.4473 35.8843 60.492 35.8296 60.533 35.756C60.5744 35.6829 60.6106 35.5848 60.6426 35.4617C60.6749 35.339 60.6973 35.185 60.7112 34.9995L60.8481 33.0914ZM66.0138 34.5791C65.9862 34.6351 65.9636 34.7001 65.945 34.773C65.9269 34.8335 65.9112 34.9045 65.8973 34.9862C65.8838 35.0685 65.8768 35.1591 65.8768 35.2581C65.8768 35.5167 65.9189 35.6998 66.0035 35.8078C66.0881 35.9157 66.183 35.9696 66.2876 35.9696C66.3929 35.9696 66.4833 35.9426 66.5586 35.8888C66.6341 35.8348 66.6967 35.7754 66.7471 35.711C66.806 35.6332 66.8589 35.5471 66.9044 35.4522V34.5146C66.7991 34.5146 66.6943 34.5177 66.5894 34.5241C66.4841 34.5305 66.3879 34.5384 66.3016 34.5465C66.2013 34.5598 66.1053 34.5704 66.0138 34.5791ZM66.2876 32.7686C66.5618 32.7686 66.8052 32.803 67.0175 32.8717C67.2299 32.9409 67.4088 33.0369 67.5553 33.1596C67.7013 33.2827 67.812 33.4288 67.8877 33.5993C67.963 33.7696 68.0006 33.9559 68.0006 34.1586V35.9049L68.4115 36.0019V36.099H67.795C67.6308 36.099 67.4981 36.0739 67.3978 36.0242C67.2972 35.975 67.2172 35.9198 67.1579 35.8597C67.0891 35.7864 67.039 35.7045 67.0075 35.6139C66.9478 35.7259 66.8727 35.8226 66.781 35.9049C66.7035 35.978 66.6006 36.0448 66.4727 36.1053C66.3452 36.1656 66.192 36.1959 66.0138 36.1959C65.7992 36.1959 65.6132 36.1731 65.4555 36.1279C65.2978 36.0829 65.1666 36.0202 65.0613 35.9403C64.9567 35.8603 64.8778 35.768 64.8253 35.6624C64.7727 35.5569 64.7464 35.4434 64.7464 35.3229C64.7464 35.2237 64.758 35.1318 64.7809 35.0481C64.8037 34.964 64.8311 34.8895 64.8628 34.8249C64.8993 34.7474 64.9405 34.6759 64.9862 34.6115C65.178 34.5681 65.3813 34.5298 65.5957 34.4952C65.7787 34.4646 65.9841 34.4357 66.2125 34.4076C66.4408 34.3798 66.6714 34.3614 66.9044 34.3527V34.1586C66.9044 33.9087 66.8874 33.7019 66.8531 33.5378C66.819 33.3741 66.7696 33.245 66.7057 33.1499C66.6416 33.0549 66.5629 32.9892 66.4695 32.9525C66.3758 32.9159 66.2697 32.8975 66.1511 32.8975C66.101 32.8975 66.0551 32.9011 66.0138 32.9073C65.9728 32.9136 65.9362 32.9214 65.904 32.9301C65.8678 32.9428 65.8356 32.9536 65.8083 32.9625V33.9325C65.7765 33.941 65.7468 33.9474 65.7191 33.9519C65.692 33.9559 65.6635 33.9594 65.6337 33.9614C65.6039 33.9637 65.5707 33.9646 65.5342 33.9646C65.3789 33.9646 65.2546 33.9204 65.161 33.832C65.0674 33.7438 65.0203 33.6261 65.0203 33.4797C65.0203 33.3892 65.0445 33.3015 65.0924 33.2175C65.1405 33.1335 65.2156 33.0583 65.3185 32.9911C65.4214 32.9245 65.5528 32.8705 65.7125 32.8298C65.8725 32.7886 66.0641 32.7686 66.2876 32.7686ZM74.9882 34.3527C75.1344 34.3527 75.2613 34.3679 75.3683 34.3978C75.4759 34.4282 75.5683 34.4681 75.6461 34.5178C75.7238 34.5671 75.7864 34.6258 75.8345 34.6923C75.8826 34.7594 75.9202 34.829 75.9476 34.9025L76.2899 35.9049L76.6325 36.0019V36.099H75.9133C75.6576 36.099 75.4576 36.0436 75.3137 35.934C75.1698 35.8241 75.0727 35.6956 75.0227 35.5493L74.646 34.482H74.1662V35.9049L74.5772 36.0019V36.099H72.6593V36.0019L73.0702 35.9049V33.0595L72.6593 32.9625V32.8652H74.5772V32.9625L74.1662 33.0595V34.3204H74.4061C74.5433 34.3204 74.6596 34.2783 74.7554 34.1942C74.8514 34.1101 74.9176 34.0124 74.9541 33.8999L75.1251 33.3179C75.1756 33.1541 75.2522 33.0271 75.3551 32.9365C75.4576 32.8458 75.5864 32.8004 75.7417 32.8004C75.9476 32.8004 76.1074 32.8523 76.2215 32.9558C76.3359 33.0595 76.3928 33.2018 76.3928 33.3824C76.3928 33.5464 76.3462 33.6734 76.2524 33.7643C76.1588 33.8549 76.0343 33.8999 75.8792 33.8999C75.8427 33.8999 75.8069 33.899 75.7726 33.8968C75.7387 33.8946 75.7101 33.8913 75.6871 33.887C75.6554 33.883 75.6276 33.8764 75.6047 33.8675V32.9949C75.4723 33.0248 75.381 33.1325 75.331 33.3178L75.1597 33.8999C75.1325 33.9907 75.098 34.0648 75.057 34.1233C75.0158 34.1813 74.9748 34.2276 74.9336 34.2622C74.8835 34.305 74.8333 34.3355 74.7828 34.3526L74.9882 34.3527ZM78.544 33.0914L78.0646 32.9625V32.8652H81.25V32.9625L80.8392 33.0595V35.9049L81.25 36.0019V36.099H79.3319V36.0019L79.7428 35.9049V33.0271H78.7494L78.6121 34.9995C78.5988 35.2196 78.5669 35.4047 78.5166 35.5558C78.4665 35.7065 78.4059 35.8296 78.3352 35.9242C78.2642 36.0189 78.1854 36.088 78.0989 36.1314C78.0118 36.1741 77.9205 36.1959 77.8247 36.1959C77.6191 36.1959 77.459 36.1442 77.3451 36.0407C77.2308 35.9371 77.1736 35.7947 77.1736 35.6139C77.1736 35.4672 77.2252 35.3442 77.3278 35.2452C77.4305 35.1461 77.5507 35.0966 77.6875 35.0966C77.7242 35.0966 77.7574 35.0984 77.7869 35.1029C77.8165 35.1074 77.8452 35.1112 77.8724 35.1159C77.9 35.1204 77.9298 35.1245 77.9617 35.129V36.0019C78.0027 35.9847 78.0471 35.9578 78.0952 35.9208C78.1431 35.8843 78.1878 35.8296 78.2288 35.756C78.27 35.6829 78.3065 35.5848 78.3384 35.4617C78.3705 35.339 78.3934 35.185 78.4068 34.9995L78.544 33.0914ZM83.7092 34.5791C83.6818 34.6351 83.6596 34.7001 83.6408 34.773C83.6227 34.8335 83.6069 34.9045 83.5929 34.9862C83.5789 35.0685 83.5726 35.1591 83.5726 35.2581C83.5726 35.5167 83.6149 35.6998 83.6993 35.8078C83.7836 35.9157 83.8786 35.9696 83.9836 35.9696C84.0887 35.9696 84.1789 35.9426 84.2542 35.8888C84.3297 35.8348 84.3927 35.7754 84.4423 35.711C84.502 35.6332 84.5545 35.5471 84.6 35.4522V34.5146C84.4947 34.5146 84.3897 34.5177 84.2848 34.5241C84.1799 34.5305 84.0839 34.5384 83.9974 34.5465C83.8969 34.5598 83.8009 34.5704 83.7092 34.5791ZM83.9836 32.7686C84.2578 32.7686 84.5009 32.803 84.7131 32.8717C84.9255 32.9409 85.1048 33.0369 85.2507 33.1596C85.3971 33.2827 85.5078 33.4288 85.5831 33.5993C85.6584 33.7696 85.6964 33.9559 85.6964 34.1586V35.9049L86.1071 36.0019V36.099H85.4906C85.3264 36.099 85.1939 36.0739 85.0932 36.0242C84.9931 35.975 84.9128 35.9198 84.8539 35.8597C84.7849 35.7864 84.7348 35.7045 84.7027 35.6139C84.6434 35.7259 84.5681 35.8226 84.477 35.9049C84.3991 35.978 84.2967 36.0448 84.1685 36.1053C84.0403 36.1656 83.8874 36.1959 83.7092 36.1959C83.4952 36.1959 83.3088 36.1731 83.1513 36.1279C82.9936 36.0829 82.8624 36.0202 82.7572 35.9403C82.6521 35.8603 82.5735 35.768 82.5209 35.6624C82.468 35.5569 82.4421 35.4434 82.4421 35.3229C82.4421 35.2237 82.4536 35.1318 82.4763 35.0481C82.4991 34.964 82.5267 34.8895 82.5589 34.8249C82.5951 34.7474 82.6361 34.6759 82.6817 34.6115C82.8739 34.5681 83.0771 34.5298 83.2915 34.4952C83.474 34.4646 83.6796 34.4357 83.9081 34.4076C84.1364 34.3798 84.3674 34.3614 84.6 34.3527V34.1586C84.6 33.9087 84.5829 33.7019 84.5487 33.5378C84.5146 33.3741 84.4654 33.245 84.4013 33.1499C84.3375 33.0549 84.2587 32.9892 84.1648 32.9525C84.0712 32.9159 83.9653 32.8975 83.8462 32.8975C83.7964 32.8975 83.7506 32.9011 83.7092 32.9073C83.6684 32.9136 83.6318 32.9214 83.6 32.9301C83.5634 32.9428 83.5312 32.9536 83.5036 32.9625V33.9325C83.4721 33.941 83.4423 33.9474 83.4151 33.9519C83.3876 33.9559 83.3588 33.9594 83.3295 33.9614C83.2993 33.9637 83.2665 33.9646 83.2298 33.9646C83.0745 33.9646 82.95 33.9204 82.8562 33.832C82.7632 33.7438 82.7162 33.6261 82.7162 33.4797C82.7162 33.3892 82.7401 33.3015 82.7882 33.2175C82.8361 33.1335 82.9112 33.0583 83.0143 32.9911C83.117 32.9245 83.2484 32.8705 83.4081 32.8298C83.5677 32.7886 83.7599 32.7686 83.9836 32.7686ZM89.0805 32.8975C88.9618 32.8975 88.852 32.9213 88.7519 32.9688C88.6513 33.0162 88.5644 33.0991 88.4913 33.2177C88.4186 33.3362 88.3612 33.4983 88.3202 33.7028C88.2792 33.9077 88.2583 34.1671 88.2583 34.482C88.2583 34.7883 88.2792 35.0414 88.3202 35.242C88.3612 35.4422 88.4186 35.6008 88.4913 35.7173C88.5644 35.8336 88.6513 35.9157 88.7519 35.9629C88.852 36.0104 88.9618 36.0338 89.0805 36.0338C89.2175 36.0338 89.3464 36.0104 89.4677 35.9629C89.5887 35.9157 89.6938 35.8522 89.7829 35.7721C89.8716 35.6925 89.9426 35.6019 89.995 35.5007C90.0476 35.3992 90.0739 35.297 90.0739 35.1935H90.245C90.245 35.3229 90.2144 35.4479 90.1527 35.5687C90.0912 35.6892 90.0034 35.796 89.889 35.8888C89.7749 35.9813 89.6375 36.0556 89.4779 36.112C89.318 36.1678 89.1398 36.1959 88.9437 36.1959C88.359 36.1959 87.9045 36.0436 87.5802 35.7401C87.2558 35.4359 87.0937 35.0166 87.0937 34.482C87.0937 33.9474 87.2558 33.5281 87.5802 33.2244C87.9045 32.9204 88.359 32.7686 88.9437 32.7686C89.1674 32.7686 89.3594 32.7888 89.5193 32.8299C89.6789 32.8707 89.8101 32.9246 89.913 32.9912C90.0155 33.0584 90.0912 33.1336 90.1389 33.2177C90.187 33.3016 90.2109 33.3894 90.2109 33.4798C90.2109 33.6262 90.1639 33.7439 90.0705 33.8321C89.9768 33.9205 89.8524 33.9647 89.6971 33.9647C89.6606 33.9647 89.6252 33.9633 89.5909 33.9616C89.5566 33.9593 89.5279 33.9561 89.5053 33.952C89.4733 33.9475 89.4461 33.9412 89.423 33.9326V32.9626C89.3954 32.9537 89.3637 32.9429 89.327 32.9302C89.2953 32.9215 89.2586 32.9137 89.2175 32.9074C89.1765 32.9011 89.1309 32.8975 89.0805 32.8975ZM93.2872 32.8975C93.1681 32.8975 93.0587 32.9213 92.9581 32.9688C92.8574 33.0162 92.7709 33.0991 92.6978 33.2177C92.6244 33.3362 92.5677 33.4983 92.5267 33.7028C92.4857 33.9077 92.465 34.1671 92.465 34.482C92.465 34.7883 92.4857 35.0414 92.5267 35.242C92.5677 35.4422 92.6244 35.6008 92.6978 35.7173C92.7709 35.8336 92.8574 35.9157 92.9581 35.9629C93.0587 36.0104 93.1681 36.0338 93.2872 36.0338C93.4242 36.0338 93.553 36.0104 93.674 35.9629C93.7954 35.9157 93.9003 35.8522 93.9894 35.7721C94.0781 35.6925 94.149 35.6019 94.2015 35.5007C94.2541 35.3992 94.2804 35.297 94.2804 35.1935H94.4517C94.4517 35.3229 94.4209 35.4479 94.3592 35.5687C94.297 35.6892 94.2097 35.796 94.0953 35.8888C93.981 35.9813 93.8442 36.0556 93.6843 36.112C93.5245 36.1678 93.3463 36.1959 93.1498 36.1959C92.5655 36.1959 92.1107 36.0436 91.7869 35.7401C91.4624 35.4359 91.3002 35.0166 91.3002 34.482C91.3002 33.9474 91.4624 33.5281 91.7869 33.2244C92.1107 32.9204 92.5655 32.7686 93.1498 32.7686C93.3737 32.7686 93.5655 32.7888 93.7253 32.8299C93.8854 32.8707 94.0166 32.9246 94.1193 32.9912C94.2222 33.0584 94.297 33.1336 94.3451 33.2177C94.3933 33.3016 94.417 33.3894 94.417 33.4798C94.417 33.6262 94.3706 33.7439 94.2765 33.8321C94.1833 33.9205 94.0591 33.9647 93.9035 33.9647C93.8669 33.9647 93.8317 33.9633 93.7972 33.9616C93.7629 33.9593 93.7344 33.9561 93.7119 33.952C93.6798 33.9475 93.6522 33.9412 93.6293 33.9326V32.9626C93.6021 32.9537 93.5702 32.9429 93.5335 32.9302C93.5016 32.9215 93.465 32.9137 93.4242 32.9074C93.3832 32.9011 93.3374 32.8975 93.2872 32.8975ZM97.6988 32.9625V32.8652H99.6172V32.9625L99.206 33.0595V35.9049L99.6172 36.0019V36.099H97.6988V36.0019L98.1098 35.9049V33.7706L97.0141 35.5493V35.9049L97.4248 36.0019V36.099H95.5065V36.0019L95.9175 35.9049V33.0595L95.5065 32.9625V32.8652H97.4248V32.9625L97.0141 33.0595V35.1935L98.1098 33.415V33.0595L97.6988 32.9625ZM103.036 33.0595L102.625 32.9625V32.8652H104.543V32.9625L104.132 33.0595V35.9049L104.543 36.0019V36.099H102.625V36.0019L103.036 35.9049V34.773C102.981 34.8076 102.917 34.8355 102.844 34.8573C102.78 34.8791 102.703 34.8968 102.614 34.9123C102.525 34.9272 102.426 34.9351 102.316 34.9351C101.855 34.9351 101.517 34.8477 101.303 34.673C101.088 34.4985 100.98 34.273 100.98 33.9971V33.0595L100.569 32.9625V32.8652H102.488V32.9625L102.077 33.0595V33.9971C102.077 34.1437 102.089 34.2663 102.115 34.3657C102.139 34.4646 102.173 34.5445 102.217 34.605C102.26 34.6653 102.314 34.7084 102.378 34.7343C102.442 34.7602 102.513 34.773 102.59 34.773C102.65 34.773 102.707 34.7653 102.762 34.7502C102.817 34.7353 102.864 34.7172 102.905 34.6956C102.956 34.6738 102.999 34.6459 103.036 34.6115V33.0595ZM106.831 34.482C106.986 34.482 107.123 34.4789 107.242 34.4724C107.361 34.4661 107.461 34.4583 107.543 34.4498C107.639 34.4408 107.722 34.4305 107.79 34.4174C107.8 34.3742 107.811 34.3268 107.824 34.2749C107.833 34.2276 107.842 34.1749 107.848 34.1166C107.855 34.0586 107.859 33.9971 107.859 33.9325C107.859 33.7384 107.842 33.5755 107.811 33.444C107.779 33.3124 107.738 33.2063 107.691 33.124C107.643 33.0421 107.588 32.9837 107.526 32.9494C107.465 32.9149 107.404 32.8975 107.345 32.8975C107.286 32.8975 107.225 32.9179 107.163 32.9591C107.101 33.0002 107.047 33.0778 106.999 33.192C106.951 33.3063 106.911 33.4667 106.879 33.6734C106.847 33.8806 106.831 34.1498 106.831 34.482ZM107.516 36.1959C106.932 36.1959 106.477 36.0436 106.153 35.7401C105.829 35.4359 105.667 35.0166 105.667 34.482C105.667 34.2148 105.708 33.9755 105.79 33.7643C105.872 33.5531 105.986 33.3729 106.132 33.2244C106.278 33.0756 106.455 32.9625 106.663 32.8845C106.871 32.8073 107.098 32.7686 107.345 32.7686C107.601 32.7686 107.83 32.803 108.034 32.8717C108.237 32.9409 108.409 33.0334 108.551 33.1499C108.692 33.2662 108.801 33.4032 108.876 33.5606C108.952 33.7179 108.989 33.8847 108.989 34.0616C108.989 34.1221 108.986 34.1749 108.979 34.2201C108.972 34.2653 108.964 34.305 108.955 34.3398C108.941 34.3828 108.93 34.4196 108.921 34.4498C108.719 34.4883 108.507 34.5207 108.284 34.5465C108.091 34.5726 107.87 34.5954 107.619 34.6147C107.368 34.6343 107.105 34.6441 106.831 34.6441C106.831 34.9111 106.852 35.1341 106.893 35.3131C106.934 35.4919 106.991 35.6344 107.064 35.7401C107.137 35.8456 107.224 35.9208 107.324 35.966C107.425 36.0114 107.534 36.0338 107.653 36.0338C107.79 36.0338 107.919 36.0104 108.04 35.9629C108.161 35.9157 108.266 35.8522 108.355 35.7721C108.444 35.6925 108.515 35.6019 108.568 35.5007C108.62 35.3992 108.646 35.297 108.646 35.1935H108.818C108.818 35.3229 108.787 35.4479 108.725 35.5687C108.664 35.6892 108.576 35.796 108.462 35.8888C108.347 35.9813 108.21 36.0556 108.05 36.112C107.891 36.1678 107.713 36.1959 107.516 36.1959ZM112.065 32.8975C111.947 32.8975 111.837 32.9213 111.736 32.9688C111.636 33.0162 111.549 33.0991 111.476 33.2177C111.403 33.3362 111.346 33.4983 111.305 33.7028C111.263 33.9077 111.243 34.1671 111.243 34.482C111.243 34.7883 111.263 35.0414 111.305 35.242C111.346 35.4422 111.403 35.6008 111.476 35.7173C111.549 35.8336 111.636 35.9157 111.736 35.9629C111.837 36.0104 111.947 36.0338 112.065 36.0338C112.202 36.0338 112.331 36.0104 112.452 35.9629C112.573 35.9157 112.678 35.8522 112.767 35.7721C112.856 35.6925 112.927 35.6019 112.98 35.5007C113.032 35.3992 113.059 35.297 113.059 35.1935H113.23C113.23 35.3229 113.199 35.4479 113.137 35.5687C113.075 35.6892 112.988 35.796 112.873 35.8888C112.759 35.9813 112.622 36.0556 112.463 36.112C112.302 36.1678 112.124 36.1959 111.928 36.1959C111.343 36.1959 110.889 36.0436 110.565 35.7401C110.241 35.4359 110.078 35.0166 110.078 34.482C110.078 33.9474 110.241 33.5281 110.565 33.2244C110.889 32.9204 111.343 32.7686 111.928 32.7686C112.152 32.7686 112.343 32.7888 112.503 32.8299C112.663 32.8707 112.795 32.9246 112.898 32.9912C113 33.0584 113.075 33.1336 113.124 33.2177C113.172 33.3016 113.195 33.3894 113.195 33.4798C113.195 33.6262 113.149 33.7439 113.055 33.8321C112.962 33.9205 112.837 33.9647 112.682 33.9647C112.645 33.9647 112.61 33.9633 112.576 33.9616C112.541 33.9593 112.513 33.9561 112.49 33.952C112.458 33.9475 112.431 33.9412 112.407 33.9326V32.9626C112.38 32.9537 112.348 32.9429 112.312 32.9302C112.279 32.9215 112.243 32.9137 112.202 32.9074C112.161 32.9011 112.115 32.8975 112.065 32.8975ZM116.614 34.3527C116.76 34.3527 116.887 34.3679 116.994 34.3978C117.102 34.4282 117.194 34.4681 117.272 34.5178C117.349 34.5671 117.412 34.6258 117.46 34.6923C117.508 34.7594 117.546 34.829 117.573 34.9025L117.916 35.9049L118.258 36.0019V36.099H117.539C117.283 36.099 117.083 36.0436 116.94 35.934C116.796 35.8241 116.699 35.6956 116.648 35.5493L116.272 34.482H115.792V35.9049L116.203 36.0019V36.099H114.285V36.0019L114.696 35.9049V33.0595L114.285 32.9625V32.8652H116.203V32.9625L115.792 33.0595V34.3204H116.031C116.169 34.3204 116.285 34.2783 116.381 34.1942C116.477 34.1101 116.543 34.0124 116.58 33.8999L116.751 33.3179C116.801 33.1541 116.878 33.0271 116.981 32.9365C117.083 32.8458 117.212 32.8004 117.368 32.8004C117.573 32.8004 117.733 32.8523 117.847 32.9558C117.961 33.0595 118.018 33.2018 118.018 33.3824C118.018 33.5464 117.972 33.6734 117.878 33.7643C117.784 33.8549 117.66 33.8999 117.505 33.8999C117.468 33.8999 117.433 33.899 117.398 33.8968C117.364 33.8946 117.336 33.8913 117.313 33.887C117.281 33.883 117.254 33.8764 117.231 33.8675V32.9949C117.098 33.0248 117.007 33.1325 116.956 33.3178L116.785 33.8999C116.758 33.9907 116.724 34.0648 116.683 34.1233C116.642 34.1813 116.6 34.2276 116.559 34.2622C116.509 34.305 116.459 34.3355 116.408 34.3526L116.614 34.3527ZM120.957 36.0664C121.035 36.0664 121.113 36.0428 121.19 35.9955C121.268 35.9479 121.338 35.865 121.399 35.7464C121.461 35.6277 121.511 35.4662 121.55 35.2613C121.589 35.0565 121.608 34.7968 121.608 34.482C121.608 34.1671 121.589 33.9077 121.55 33.7028C121.511 33.4983 121.461 33.3362 121.399 33.2177C121.338 33.0991 121.268 33.0162 121.19 32.9688C121.113 32.9213 121.035 32.8975 120.957 32.8975C120.88 32.8975 120.802 32.9213 120.725 32.9688C120.647 33.0162 120.577 33.0991 120.516 33.2177C120.454 33.3362 120.404 33.4983 120.365 33.7028C120.326 33.9077 120.307 34.1671 120.307 34.482C120.307 34.7968 120.326 35.0565 120.365 35.2613C120.404 35.4662 120.454 35.6277 120.516 35.7464C120.577 35.865 120.647 35.9479 120.725 35.9955C120.802 36.0428 120.88 36.0664 120.957 36.0664ZM120.957 32.7686C121.241 32.7686 121.494 32.8073 121.718 32.8845C121.941 32.9625 122.133 33.0756 122.29 33.2244C122.447 33.3729 122.568 33.5531 122.649 33.7643C122.732 33.9755 122.773 34.2148 122.773 34.482C122.773 34.7494 122.732 34.9887 122.649 35.1998C122.568 35.4112 122.447 35.5911 122.29 35.7401C122.133 35.8888 121.941 36.0019 121.718 36.0794C121.494 36.1572 121.241 36.1959 120.957 36.1959C120.674 36.1959 120.421 36.1572 120.197 36.0794C119.973 36.0019 119.783 35.8888 119.625 35.7401C119.467 35.5911 119.347 35.4112 119.265 35.1998C119.183 34.9887 119.142 34.7494 119.142 34.482C119.142 34.2148 119.183 33.9755 119.265 33.7643C119.347 33.5531 119.467 33.3729 119.625 33.2244C119.783 33.0756 119.973 32.9625 120.197 32.8845C120.421 32.8073 120.674 32.7686 120.957 32.7686ZM126.089 32.9625V32.8652H128.007V32.9625L127.596 33.0595V35.9049L128.007 36.0019V36.099H126.089V36.0019L126.5 35.9049V33.7706L125.404 35.5493V35.9049L125.815 36.0019V36.099H123.896V36.0019L124.307 35.9049V33.0595L123.896 32.9625V32.8652H125.815V32.9625L125.404 33.0595V35.1935L126.5 33.415V33.0595L126.089 32.9625ZM125.952 32.2831C126.071 32.2831 126.163 32.2715 126.229 32.2479C126.296 32.2242 126.328 32.2143 126.328 32.2183V31.5072C126.356 31.5027 126.383 31.4986 126.411 31.4944C126.433 31.4899 126.459 31.4856 126.486 31.4815C126.514 31.4771 126.541 31.4746 126.568 31.4746C126.687 31.4746 126.785 31.5117 126.863 31.585C126.94 31.6583 126.979 31.751 126.979 31.863C126.979 32.0096 126.902 32.1375 126.746 32.2479C126.591 32.3576 126.326 32.4126 125.952 32.4126C125.764 32.4126 125.606 32.3978 125.475 32.3674C125.346 32.3373 125.239 32.2972 125.157 32.2479C125.075 32.198 125.015 32.1402 124.979 32.0734C124.942 32.0063 124.924 31.9361 124.924 31.863C124.924 31.751 124.963 31.6583 125.041 31.585C125.118 31.5117 125.216 31.4746 125.335 31.4746C125.358 31.4746 125.384 31.4768 125.414 31.4815C125.444 31.4856 125.47 31.4899 125.493 31.4944C125.52 31.4988 125.547 31.5029 125.575 31.5072V32.2183C125.575 32.2143 125.608 32.2242 125.674 32.2479C125.74 32.2715 125.833 32.2831 125.952 32.2831Z" fill="#F6F6F6"></path>
  <path fill-rule="evenodd" clip-rule="evenodd" d="M44.6301 41.6521L43.5182 39.6776L43.1895 39.5663V39.4545H44.0774C44.1913 39.4545 44.2922 39.4707 44.3798 39.503C44.4679 39.5352 44.5455 39.5785 44.6135 39.6327C44.6814 39.6874 44.7442 39.7529 44.8009 39.8298C44.8579 39.9065 44.9125 39.9918 44.9654 40.0858L45.3007 40.6871L45.9192 39.7889L45.4258 39.5663V39.4545H46.6756V39.5663L46.1493 39.7889L45.3995 40.8654L46.5768 42.9441L46.9058 43.0553V43.1669H46.0176C45.9037 43.1669 45.8026 43.1517 45.7152 43.1222C45.6273 43.0921 45.5485 43.049 45.4782 42.9925C45.4086 42.9354 45.3459 42.8685 45.2908 42.7916C45.2361 42.715 45.1823 42.6299 45.1298 42.5359L44.7354 41.8378L44.0443 42.8326L44.5377 43.0553V43.1669H43.2883V43.0553L43.8144 42.8326L44.6301 41.6521ZM49.2999 43.1295C49.3743 43.1295 49.4491 43.1023 49.5232 43.0481C49.598 42.9934 49.6649 42.8982 49.7242 42.7622C49.7834 42.6259 49.8315 42.4405 49.869 42.2053C49.9058 41.9701 49.9247 41.672 49.9247 41.3106C49.9247 40.9492 49.9058 40.6513 49.869 40.4161C49.8315 40.1814 49.7834 39.9953 49.7242 39.8593C49.6649 39.7232 49.598 39.628 49.5232 39.5735C49.4491 39.5191 49.3743 39.4917 49.2999 39.4917C49.2252 39.4917 49.151 39.5191 49.0761 39.5735C49.0015 39.628 48.9348 39.7232 48.8756 39.8593C48.8165 39.9953 48.7679 40.1814 48.731 40.4161C48.6937 40.6513 48.6751 40.9492 48.6751 41.3106C48.6751 41.672 48.6937 41.9701 48.731 42.2053C48.7679 42.4405 48.8165 42.6259 48.8756 42.7622C48.9348 42.8982 49.0015 42.9934 49.0761 43.0481C49.151 43.1023 49.2252 43.1295 49.2999 43.1295ZM49.2999 39.3438C49.5717 39.3438 49.8151 39.3882 50.0299 39.4768C50.2447 39.5663 50.428 39.696 50.579 39.867C50.7304 40.0374 50.8453 40.2443 50.9243 40.4867C51.0032 40.7292 51.0425 41.0039 51.0425 41.3106C51.0425 41.6176 51.0032 41.8922 50.9243 42.1347C50.8453 42.3774 50.7304 42.5838 50.579 42.7549C50.428 42.9256 50.2447 43.0553 50.0299 43.1444C49.8151 43.2337 49.5717 43.2782 49.2999 43.2782C49.028 43.2782 48.7846 43.2337 48.5698 43.1444C48.3546 43.0553 48.1719 42.9256 48.0205 42.7549C47.8691 42.5838 47.7542 42.3774 47.6752 42.1347C47.5961 41.8922 47.5568 41.6176 47.5568 41.3106C47.5568 41.0039 47.5961 40.7292 47.6752 40.4867C47.7542 40.2443 47.8691 40.0374 48.0205 39.867C48.1719 39.696 48.3546 39.5663 48.5698 39.4768C48.7846 39.3882 49.028 39.3438 49.2999 39.3438Z" fill="#F6F6F6"></path>
  <path fill-rule="evenodd" clip-rule="evenodd" d="M54.1151 43.0685C54.1605 43.1194 54.2103 43.166 54.2654 43.2081C54.3152 43.2453 54.3712 43.278 54.4324 43.306C54.4939 43.3339 54.5586 43.348 54.627 43.348C54.7136 43.348 54.7944 43.3258 54.8692 43.2815C54.9445 43.2372 55.0094 43.1557 55.0638 43.0365C55.1186 42.9178 55.162 42.7513 55.1936 42.5368C55.2255 42.322 55.2414 42.0447 55.2414 41.7042C55.2414 41.3734 55.2255 41.1026 55.1936 40.8927C55.162 40.683 55.122 40.5189 55.0739 40.3996C55.0264 40.281 54.9718 40.2002 54.9103 40.1584C54.8488 40.1165 54.7886 40.0958 54.7295 40.0958C54.6248 40.0958 54.5337 40.1244 54.4563 40.183C54.3791 40.2412 54.3152 40.3053 54.2654 40.3756C54.2061 40.4595 54.1562 40.5526 54.1151 40.6553V43.0685ZM53.0228 40.1656L52.6133 40.0608V39.9555H53.2274C53.387 39.9555 53.5177 39.9837 53.62 40.0394C53.7226 40.0958 53.8034 40.1562 53.8623 40.2214C53.9304 40.3009 53.981 40.3868 54.0126 40.4804C54.0719 40.3637 54.1469 40.259 54.2379 40.1656C54.3153 40.0863 54.4167 40.0141 54.5416 39.9487C54.6667 39.8833 54.8205 39.8511 55.0025 39.8511C55.1979 39.8511 55.3813 39.8903 55.5522 39.9696C55.7227 40.0494 55.8708 40.1656 55.9957 40.3196C56.1209 40.4731 56.2199 40.6656 56.2926 40.8962C56.3655 41.1273 56.402 41.3965 56.402 41.7042C56.402 42.0123 56.3655 42.2815 56.2926 42.5121C56.2199 42.7427 56.1174 42.9352 55.9854 43.0892C55.8534 43.2432 55.6956 43.3599 55.5109 43.4387C55.3267 43.5178 55.1229 43.5579 54.9002 43.5579C54.782 43.5579 54.6738 43.5438 54.576 43.5161C54.478 43.4881 54.3948 43.4553 54.3266 43.4178C54.2447 43.376 54.1742 43.3295 54.1151 43.278V44.6418L54.5246 44.7469V44.8517H52.6133V44.7469L53.0228 44.6418V40.1656ZM58.6823 41.7042C58.8369 41.7042 58.9734 41.7008 59.0916 41.6938C59.21 41.687 59.3102 41.6786 59.3919 41.6694C59.4876 41.6597 59.5693 41.6484 59.6379 41.6344C59.6471 41.5876 59.6583 41.5363 59.6718 41.4802C59.6809 41.4291 59.6888 41.372 59.6959 41.309C59.7026 41.2463 59.706 41.1797 59.706 41.1099C59.706 40.9 59.6901 40.7238 59.6583 40.5815C59.6265 40.4392 59.5867 40.3244 59.5387 40.2355C59.4913 40.1469 59.4365 40.0837 59.3748 40.0467C59.3135 40.0093 59.2533 39.9905 59.1942 39.9905C59.1351 39.9905 59.0746 40.0126 59.0134 40.057C58.9517 40.1016 58.8973 40.1854 58.8491 40.309C58.8016 40.4326 58.7618 40.6062 58.7298 40.8297C58.6982 41.0537 58.6823 41.3449 58.6823 41.7042ZM59.3646 43.5579C58.7822 43.5579 58.3291 43.3931 58.006 43.0649C57.6831 42.7359 57.5216 42.2824 57.5216 41.7042C57.5216 41.4152 57.5627 41.1564 57.6444 40.928C57.7263 40.6995 57.8402 40.5046 57.9855 40.3441C58.1313 40.183 58.3078 40.0608 58.5148 39.9764C58.7221 39.893 58.9478 39.8511 59.1942 39.8511C59.4487 39.8511 59.6776 39.8883 59.8802 39.9626C60.0826 40.0375 60.2544 40.1375 60.3954 40.2634C60.5365 40.3892 60.6446 40.5375 60.7199 40.7077C60.7947 40.8778 60.8323 41.0581 60.8323 41.2495C60.8323 41.315 60.8294 41.372 60.8222 41.4209C60.8155 41.4698 60.8071 41.5128 60.7985 41.5504C60.7846 41.5969 60.7734 41.6368 60.7641 41.6694C60.5638 41.711 60.3522 41.746 60.1293 41.774C59.9382 41.8022 59.7174 41.8269 59.4672 41.8478C59.2169 41.869 58.9551 41.8795 58.6823 41.8795C58.6823 42.1683 58.7027 42.4094 58.7436 42.6031C58.7844 42.7964 58.8414 42.9506 58.914 43.0649C58.9869 43.179 59.0731 43.2603 59.1737 43.3092C59.2737 43.3583 59.3829 43.3826 59.5014 43.3826C59.6379 43.3826 59.7664 43.3573 59.8866 43.306C60.0078 43.2548 60.1123 43.1861 60.2007 43.0995C60.2899 43.0134 60.3602 42.9154 60.4124 42.8059C60.4651 42.6963 60.4907 42.5857 60.4907 42.4738H60.6618C60.6618 42.6136 60.631 42.7489 60.5698 42.8795C60.5083 43.0099 60.4206 43.1253 60.3071 43.2258C60.1927 43.3258 60.0566 43.4061 59.8974 43.4672C59.7378 43.5275 59.5604 43.5579 59.3646 43.5579ZM63.7269 43.4178C63.8043 43.4178 63.8817 43.3923 63.9587 43.3412C64.0365 43.2896 64.1057 43.2 64.1672 43.0718C64.2287 42.9433 64.2788 42.7687 64.3177 42.5471C64.3562 42.3255 64.3753 42.0447 64.3753 41.7042C64.3753 41.3636 64.3562 41.083 64.3177 40.8614C64.2788 40.6403 64.2287 40.465 64.1672 40.3368C64.1057 40.2086 64.0365 40.1189 63.9587 40.0676C63.8817 40.0163 63.8043 39.9905 63.7269 39.9905C63.6498 39.9905 63.5721 40.0163 63.4948 40.0676C63.4174 40.1189 63.348 40.2086 63.2867 40.3368C63.2252 40.465 63.1751 40.6403 63.1366 40.8614C63.0977 41.083 63.0783 41.3636 63.0783 41.7042C63.0783 42.0447 63.0977 42.3255 63.1366 42.5471C63.1751 42.7687 63.2252 42.9433 63.2867 43.0718C63.348 43.2 63.4174 43.2896 63.4948 43.3412C63.5721 43.3923 63.6498 43.4178 63.7269 43.4178ZM63.7269 39.8511C64.009 39.8511 64.2616 39.893 64.4845 39.9764C64.7079 40.0608 64.8977 40.183 65.0546 40.3441C65.2116 40.5046 65.3313 40.6995 65.413 40.928C65.4949 41.1564 65.536 41.4152 65.536 41.7042C65.536 41.9934 65.4949 42.2522 65.413 42.4806C65.3313 42.7093 65.2116 42.9037 65.0546 43.0649C64.8977 43.2258 64.7079 43.348 64.4845 43.4319C64.2616 43.5161 64.009 43.5579 63.7269 43.5579C63.4449 43.5579 63.1923 43.5161 62.9693 43.4319C62.7462 43.348 62.5562 43.2258 62.3988 43.0649C62.2421 42.9037 62.1226 42.7093 62.0407 42.4806C61.9587 42.2522 61.9179 41.9934 61.9179 41.7042C61.9179 41.4152 61.9587 41.1564 62.0407 40.928C62.1226 40.6995 62.2421 40.5046 62.3988 40.3441C62.5562 40.183 62.7462 40.0608 62.9693 39.9764C63.1923 39.893 63.4449 39.8511 63.7269 39.8511ZM66.6556 40.0608V39.9555H69.8299V41.1797H69.6251C69.5388 41.1051 69.4636 41.0141 69.3998 40.9068C69.3454 40.8136 69.2953 40.7026 69.2497 40.5749C69.2041 40.4467 69.1811 40.2985 69.1811 40.1306H68.1574V43.2432L68.5667 43.348V43.4531H66.6556V43.348L67.0651 43.2432V40.1656L66.6556 40.0608ZM72.2809 43.0685C72.326 43.1194 72.3763 43.166 72.4309 43.2081C72.4808 43.2453 72.5367 43.278 72.5982 43.306C72.6595 43.3339 72.7242 43.348 72.7928 43.348C72.8789 43.348 72.9602 43.3258 73.0348 43.2815C73.1103 43.2372 73.1752 43.1557 73.2294 43.0365C73.2842 42.9178 73.3276 42.7513 73.3594 42.5368C73.3914 42.322 73.4071 42.0447 73.4071 41.7042C73.4071 41.3734 73.3914 41.1026 73.3594 40.8927C73.3276 40.683 73.2874 40.5189 73.2395 40.3996C73.1917 40.281 73.1374 40.2002 73.0758 40.1584C73.0146 40.1165 72.9544 40.0958 72.8951 40.0958C72.7906 40.0958 72.6995 40.1244 72.6218 40.183C72.5446 40.2412 72.4808 40.3053 72.4309 40.3756C72.3716 40.4595 72.3217 40.5526 72.2809 40.6553V43.0685ZM71.1884 40.1656L70.7788 40.0608V39.9555H71.3932C71.5525 39.9555 71.6832 39.9837 71.7858 40.0394C71.8883 40.0958 71.9689 40.1562 72.0281 40.2214C72.096 40.3009 72.1465 40.3868 72.1783 40.4804C72.2375 40.3637 72.3127 40.259 72.4039 40.1656C72.4808 40.0863 72.5823 40.0141 72.7072 39.9487C72.8325 39.8833 72.986 39.8511 73.1681 39.8511C73.3637 39.8511 73.5467 39.8903 73.7174 39.9696C73.8883 40.0494 74.0364 40.1656 74.1615 40.3196C74.2864 40.4731 74.3853 40.6656 74.4584 40.8962C74.5308 41.1273 74.5676 41.3965 74.5676 41.7042C74.5676 42.0123 74.5308 42.2815 74.4584 42.5121C74.3853 42.7427 74.2829 42.9352 74.1512 43.0892C74.0192 43.2432 73.8609 43.3599 73.6763 43.4387C73.4927 43.5178 73.2887 43.5579 73.0658 43.5579C72.9475 43.5579 72.8392 43.5438 72.7416 43.5161C72.6436 43.4881 72.5604 43.4553 72.4922 43.4178C72.4105 43.376 72.34 43.3295 72.2809 43.278V44.6418L72.6902 44.7469V44.8517H70.7788V44.7469L71.1884 44.6418V40.1656ZM77.0185 41.8092C76.991 41.8698 76.9683 41.9401 76.9498 42.0189C76.9317 42.0843 76.916 42.1612 76.902 42.2495C76.8887 42.3385 76.8816 42.4366 76.8816 42.5436C76.8816 42.8233 76.924 43.0213 77.0082 43.1381C77.0925 43.2548 77.1869 43.3132 77.2914 43.3132C77.3961 43.3132 77.4859 43.2839 77.5609 43.2258C77.6362 43.1674 77.699 43.1031 77.7488 43.0335C77.8081 42.9493 77.8602 42.8562 77.9057 42.7535V41.7394C77.8013 41.7394 77.6964 41.7428 77.5917 41.7498C77.487 41.7566 77.3915 41.7652 77.3051 41.774C77.2049 41.7883 77.1093 41.7998 77.0185 41.8092ZM77.2914 39.8511C77.5644 39.8511 77.8069 39.8883 78.0182 39.9626C78.2302 40.0375 78.4084 40.1412 78.5541 40.274C78.6999 40.4071 78.8102 40.5652 78.8854 40.7496C78.9604 40.9337 78.998 41.1353 78.998 41.3544V43.2432L79.4076 43.348V43.4531H78.7932C78.6296 43.4531 78.4976 43.426 78.3974 43.3722C78.2972 43.3189 78.2172 43.2592 78.1584 43.1943C78.09 43.115 78.0399 43.0264 78.0083 42.9284C77.9489 43.0495 77.8741 43.1542 77.7828 43.2432C77.7054 43.3222 77.6031 43.3945 77.4756 43.4599C77.3483 43.5251 77.1959 43.5579 77.0185 43.5579C76.8044 43.5579 76.6189 43.5332 76.462 43.4843C76.3048 43.4357 76.1741 43.3678 76.0699 43.2815C75.9649 43.1949 75.8862 43.0951 75.8338 42.9808C75.7813 42.8667 75.7554 42.7441 75.7554 42.6136C75.7554 42.5064 75.767 42.407 75.7897 42.3165C75.8125 42.2256 75.8396 42.1449 75.8716 42.0751C75.9078 41.9912 75.9488 41.9138 75.9944 41.8443C76.1855 41.7973 76.388 41.7559 76.6021 41.7185C76.7842 41.6855 76.9889 41.6542 77.2163 41.6238C77.4437 41.5936 77.6736 41.5738 77.9057 41.5643V41.3544C77.9057 41.0841 77.8886 40.8606 77.8544 40.683C77.8204 40.5059 77.7718 40.3663 77.708 40.2634C77.6441 40.1608 77.5657 40.0897 77.4721 40.05C77.3788 40.0104 77.2731 39.9905 77.1549 39.9905C77.1049 39.9905 77.0592 39.9944 77.0185 40.0011C76.9775 40.0079 76.9411 40.0163 76.9089 40.0258C76.8725 40.0395 76.8408 40.0511 76.8137 40.0608V41.1099C76.7816 41.1192 76.7519 41.126 76.7247 41.1308C76.6974 41.1352 76.669 41.139 76.6393 41.1412C76.6099 41.1436 76.5768 41.1446 76.5402 41.1446C76.3859 41.1446 76.2618 41.0968 76.1683 41.0011C76.0752 40.9058 76.0281 40.7785 76.0281 40.6201C76.0281 40.5223 76.0522 40.4274 76.1001 40.3367C76.1479 40.2457 76.2227 40.1644 76.3252 40.0917C76.428 40.0197 76.5587 39.9613 76.7178 39.9173C76.8773 39.8728 77.0684 39.8511 77.2914 39.8511ZM83.4285 43.348C83.5377 43.3388 83.6448 43.3037 83.7495 43.2432C83.8541 43.1821 83.9451 43.0881 84.0227 42.9599C84.0997 42.8315 84.1624 42.6649 84.2104 42.4597C84.2581 42.2544 84.2818 42.0026 84.2818 41.7042C84.2818 41.4059 84.2581 41.154 84.2104 40.9491C84.1624 40.7438 84.0997 40.5769 84.0227 40.4489C83.9451 40.3207 83.8541 40.226 83.7495 40.1656C83.6448 40.1046 83.5377 40.0703 83.4285 40.0608V43.348ZM82.3364 38.7663L81.9267 38.6619V38.5566H82.8141C83.2239 38.5566 83.4285 38.7663 83.4285 39.1863V39.9207C83.7424 39.9299 84.0247 39.9824 84.2751 40.078C84.5251 40.174 84.7371 40.3009 84.9099 40.4595C85.0825 40.6178 85.2145 40.8044 85.3057 41.0187C85.3971 41.2333 85.4422 41.4617 85.4422 41.7042C85.4422 41.9515 85.3971 42.1811 85.3057 42.3934C85.2145 42.6055 85.0825 42.7909 84.9099 42.9493C84.7371 43.1077 84.5251 43.235 84.2751 43.3306C84.0247 43.426 83.7424 43.4784 83.4285 43.4881V44.6418L83.8385 44.7469V44.8517H81.9267V44.7469L82.3364 44.6418V43.4881C82.0221 43.4784 81.7401 43.426 81.4896 43.3306C81.2396 43.235 81.0279 43.1077 80.8548 42.9493C80.6818 42.7909 80.5502 42.6055 80.4588 42.3934C80.3681 42.1811 80.3225 41.9515 80.3225 41.7042C80.3225 41.4617 80.3681 41.2333 80.4588 41.0187C80.5502 40.8044 80.6818 40.6178 80.8548 40.4595C81.0279 40.3009 81.2396 40.174 81.4896 40.078C81.7401 39.9824 82.0221 39.9299 82.3364 39.9207V38.7663ZM82.3364 40.0608C82.2274 40.0703 82.12 40.1046 82.0154 40.1656C81.9108 40.226 81.8198 40.3207 81.7424 40.4489C81.6649 40.5769 81.6023 40.7438 81.5546 40.9491C81.507 41.154 81.483 41.4059 81.483 41.7042C81.483 42.0026 81.507 42.2544 81.5546 42.4597C81.6023 42.6649 81.6649 42.8315 81.7424 42.9599C81.8198 43.0881 81.9108 43.1821 82.0154 43.2432C82.12 43.3037 82.2274 43.3388 82.3364 43.348V40.0608ZM88.6782 40.0608V39.9555H90.5896V40.0608L90.1798 40.1656V43.2432L90.5896 43.348V43.4531H88.6782V43.348L89.0878 43.2432V40.9348L87.9955 42.8586V43.2432L88.405 43.348V43.4531H86.4939V43.348L86.9032 43.2432V40.1656L86.4939 40.0608V39.9555H88.405V40.0608L87.9955 40.1656V42.4738L89.0878 40.5502V40.1656L88.6782 40.0608ZM93.894 40.0608V39.9555H95.8052V40.0608L95.3954 40.1656V43.2432L95.8052 43.348V43.4531H93.894V43.348L94.3036 43.2432V40.9348L93.211 42.8586V43.2432L93.6206 43.348V43.4531H91.7094V43.348L92.119 43.2432V40.1656L91.7094 40.0608V39.9555H93.6206V40.0608L93.211 40.1656V42.4738L94.3036 40.5502V40.1656L93.894 40.0608Z" fill="#F6F6F6"></path>
  <path fill-rule="evenodd" clip-rule="evenodd" d="M35.6081 21.2053V21.4132H32.9844V21.2053L34.119 20.7894L38.0192 11.571H38.4447L42.4868 20.9973L43.1959 21.2053V21.4132H41.4941C40.9645 21.4132 40.5484 21.2953 40.2459 21.0597C39.9433 20.8241 39.7259 20.5492 39.5936 20.235L38.8702 18.5714H35.4804L34.5445 20.7894L35.6081 21.2053ZM35.6223 18.225H38.7283L37.1682 14.5791L35.6223 18.225ZM47.0963 17.8091C47.6352 17.8276 48.1174 17.9014 48.5429 18.0308C48.7226 18.0863 48.8998 18.1578 49.0747 18.2458C49.2496 18.3336 49.4058 18.4398 49.5428 18.5646C49.6798 18.6893 49.791 18.8395 49.8761 19.015C49.9613 19.1907 50.0038 19.3893 50.0038 19.6111C50.0038 19.8883 49.9423 20.1495 49.8194 20.3943C49.6964 20.6393 49.4908 20.8518 49.2024 21.032C48.9141 21.2122 48.5335 21.3554 48.0607 21.4617C47.588 21.5679 47.0063 21.6211 46.3162 21.6211C45.834 21.6211 45.4086 21.561 45.0396 21.4409C44.6709 21.3209 44.3614 21.1614 44.1108 20.9626C43.8602 20.764 43.6687 20.5353 43.5363 20.2766C43.404 20.0177 43.3378 19.7497 43.3378 19.4725H43.6923C43.6923 19.6943 43.7467 19.9137 43.8554 20.131C43.9642 20.3481 44.1226 20.5422 44.3305 20.7133C44.5386 20.8842 44.7845 21.0204 45.0681 21.1221C45.3517 21.2238 45.6732 21.2745 46.0326 21.2745C47.12 21.2745 47.6635 20.7201 47.6635 19.6111C47.6635 19.0566 47.5382 18.6407 47.2878 18.3635C47.0372 18.0863 46.7134 17.9476 46.3162 17.9476H45.3943V17.6012H46.0326C46.4296 17.6012 46.7535 17.4694 47.004 17.2061C47.2546 16.9426 47.3799 16.566 47.3799 16.0763C47.3799 15.5864 47.2546 15.2098 47.004 14.9465C46.7535 14.6831 46.4296 14.5514 46.0326 14.5514C45.9002 14.5514 45.7843 14.5583 45.6851 14.5722C45.5858 14.586 45.4983 14.6022 45.4226 14.6207C45.3281 14.6483 45.2477 14.6716 45.1816 14.69V16.7694C45.1154 16.7879 45.0539 16.8016 44.9971 16.811C44.9405 16.8202 44.8813 16.8272 44.8199 16.8317C44.7584 16.8364 44.6899 16.8386 44.6143 16.8386C44.2929 16.8386 44.035 16.744 43.8412 16.5546C43.6474 16.3651 43.5506 16.1133 43.5506 15.7989C43.5506 15.6049 43.6025 15.4177 43.7065 15.2376C43.8105 15.0574 43.9714 14.8956 44.1888 14.7523C44.4063 14.6092 44.6899 14.4937 45.0396 14.4059C45.3896 14.3181 45.8151 14.2742 46.3162 14.2742C46.9402 14.2742 47.4673 14.325 47.8975 14.4267C48.3277 14.5284 48.6777 14.6646 48.9471 14.8355C49.2167 15.0066 49.4128 15.2007 49.5357 15.4178C49.6586 15.635 49.72 15.8544 49.72 16.0763C49.72 16.2888 49.6822 16.4737 49.6066 16.6307C49.5309 16.7879 49.4317 16.9241 49.3088 17.0397C49.1858 17.1551 49.0441 17.2522 48.8833 17.3308C48.7226 17.4094 48.5618 17.4764 48.4011 17.5317C48.0229 17.6519 47.588 17.7212 47.0963 17.7397V17.8091ZM54.7548 15.3832C54.6132 15.3832 54.4712 15.4271 54.3294 15.5149C54.1876 15.6026 54.0576 15.7598 53.9394 15.9861C53.8213 16.2125 53.7266 16.5176 53.6557 16.901C53.5849 17.2846 53.5494 17.7721 53.5494 18.3635C53.5494 18.9549 53.5849 19.4425 53.6557 19.826C53.7266 20.2095 53.8213 20.5145 53.9394 20.7409C54.0576 20.9674 54.1876 21.1244 54.3294 21.2122C54.4712 21.3001 54.6132 21.344 54.7548 21.344C54.8968 21.344 55.0385 21.3001 55.1804 21.2122C55.3222 21.1244 55.4523 20.9674 55.5704 20.7409C55.6886 20.5145 55.7831 20.2095 55.8541 19.826C55.925 19.4425 55.9605 18.9549 55.9605 18.3635C55.9605 17.7721 55.925 17.2846 55.8541 16.901C55.7831 16.5176 55.6886 16.2125 55.5704 15.9861C55.4523 15.7598 55.3222 15.6026 55.1804 15.5149C55.0385 15.4271 54.8968 15.3832 54.7548 15.3832ZM51.6346 17.2545C51.7008 17.0143 51.8214 16.7671 51.9963 16.513C52.1712 16.2587 52.3935 16.0277 52.6629 15.8197C52.9324 15.6119 53.242 15.4408 53.5919 15.3069C53.9417 15.173 54.3294 15.1058 54.7548 15.1058C55.9367 15.1058 56.835 15.397 57.4496 15.9792C58.0643 16.5614 58.3715 17.3562 58.3715 18.3635C58.3715 19.3708 58.0643 20.1656 57.4496 20.7478C56.835 21.33 55.9367 21.6211 54.7548 21.6211C53.573 21.6211 52.6747 21.3208 52.0601 20.7201C51.4457 20.1194 51.1383 19.2414 51.1383 18.0863V17.2545C51.1383 16.3859 51.214 15.6535 51.3652 15.0574C51.5165 14.4614 51.7316 13.9692 52.0106 13.581C52.2895 13.1929 52.6252 12.8972 53.0175 12.6939C53.4099 12.4905 53.8472 12.3473 54.3294 12.2641L57.5915 11.7096L57.8042 11.0166H58.017V12.2641C58.017 12.68 57.9153 12.9965 57.7119 13.2137C57.5087 13.4309 57.2085 13.5764 56.8114 13.6504L53.5494 14.2048C53.3224 14.2418 53.0932 14.3319 52.8615 14.4751C52.6299 14.6184 52.4242 14.8147 52.2446 15.0642C52.0648 15.3138 51.9184 15.6211 51.8048 15.9861C51.6914 16.3512 51.6346 16.774 51.6346 17.2545ZM65.6049 15.1058L64.5411 14.69V14.482H67.165V14.69L66.0303 15.1058L63.1937 22.245C62.8912 23.0119 62.5674 23.5619 62.2221 23.8946C61.877 24.2273 61.4917 24.3937 61.0662 24.3937C60.6409 24.3937 60.3099 24.2827 60.0735 24.0609C59.8371 23.8391 59.7188 23.5341 59.7188 23.146C59.7188 22.7948 59.8158 22.5222 60.0097 22.3282C60.2035 22.134 60.4611 22.037 60.7826 22.037C60.8583 22.037 60.9268 22.0417 60.9883 22.0508C61.0498 22.0601 61.1088 22.0693 61.1655 22.0786C61.2223 22.0878 61.2838 22.0971 61.35 22.1063V23.9778C61.4728 23.9593 61.5934 23.9177 61.7117 23.853C61.8298 23.7883 61.9457 23.689 62.0591 23.5549C62.1725 23.4209 62.2859 23.2477 62.3995 23.0352C62.5129 22.8225 62.6359 22.5592 62.7682 22.245L63.0518 21.5519L59.3644 14.8979L58.6552 14.69V14.482H60.4281C60.6928 14.482 60.9245 14.5121 61.123 14.5722C61.3215 14.6323 61.4941 14.7132 61.6406 14.8147C61.7872 14.9164 61.9172 15.0389 62.0308 15.1821C62.1442 15.3254 62.2482 15.4847 62.3427 15.6604L64.1156 18.8626L65.6049 15.1058ZM72.2707 17.6704C72.5732 17.6704 72.8356 17.7028 73.0579 17.7675C73.28 17.8322 73.4715 17.9176 73.6323 18.0239C73.7929 18.1302 73.9229 18.2549 74.0223 18.3982C74.1214 18.5415 74.1995 18.6916 74.2563 18.8486L74.9654 20.9973L75.6746 21.2053V21.4132H74.1853C73.6559 21.4132 73.2421 21.2953 72.9443 21.0597C72.6466 20.8241 72.4456 20.5492 72.3416 20.235L71.5615 17.9476H70.5687V20.9973L71.4197 21.2053V21.4132H67.4486V21.2053L68.2994 20.9973V14.8979L67.4486 14.69V14.482H71.4197V14.69L70.5687 14.8979V17.6012H71.0652C71.3488 17.6012 71.5899 17.5109 71.7884 17.3308C71.9871 17.1506 72.1241 16.9403 72.1998 16.7001L72.5543 15.4525C72.6583 15.1013 72.8167 14.8286 73.0294 14.6346C73.2421 14.4406 73.5093 14.3435 73.8308 14.3435C74.2563 14.3435 74.5872 14.4544 74.8235 14.6762C75.0599 14.8979 75.1782 15.2029 75.1782 15.5912C75.1782 15.9422 75.0812 16.2148 74.8874 16.409C74.6936 16.603 74.4359 16.7001 74.1144 16.7001C74.0389 16.7001 73.9655 16.6978 73.8946 16.6931C73.8237 16.6885 73.7646 16.6816 73.7174 16.6723C73.6511 16.6631 73.5944 16.6492 73.5472 16.6307V14.7594C73.2729 14.8241 73.0838 15.0551 72.9798 15.4525L72.6253 16.7001C72.5686 16.8941 72.4977 17.0535 72.4126 17.1782C72.3275 17.303 72.2424 17.4024 72.1572 17.4764C72.0532 17.5687 71.9492 17.6334 71.8452 17.6704H72.2707ZM79.0784 18.1556C79.0216 18.2757 78.9744 18.4144 78.9365 18.5714C78.8987 18.7008 78.8656 18.8534 78.8373 19.0289C78.8089 19.2044 78.7948 19.3986 78.7948 19.6111C78.7948 20.1656 78.8822 20.5584 79.0571 20.7894C79.232 21.0204 79.4282 21.136 79.6456 21.136C79.8631 21.136 80.0499 21.0782 80.206 20.9626C80.362 20.8472 80.492 20.7201 80.596 20.5814C80.7188 20.4151 80.8276 20.2302 80.9221 20.027V18.017C80.7047 18.017 80.4872 18.0239 80.2696 18.0378C80.0522 18.0516 79.8537 18.0678 79.6741 18.0863C79.4661 18.114 79.2675 18.1371 79.0784 18.1556ZM79.6456 14.2742C80.213 14.2742 80.7164 14.3481 81.1561 14.4959C81.5957 14.6438 81.967 14.8494 82.2695 15.1129C82.5721 15.3762 82.8014 15.6904 82.9573 16.0555C83.1133 16.4205 83.1914 16.8202 83.1914 17.2545V20.9973L84.0424 21.2053V21.4132H82.7659C82.4255 21.4132 82.1512 21.36 81.9433 21.2537C81.7353 21.1475 81.5697 21.0298 81.447 20.9002C81.3051 20.7432 81.201 20.5677 81.1349 20.3735C81.0119 20.6138 80.856 20.8218 80.6668 20.9973C80.5062 21.1545 80.2934 21.2976 80.0286 21.4271C79.7639 21.5565 79.4471 21.6211 79.0784 21.6211C78.634 21.6211 78.2487 21.5727 77.9225 21.4756C77.5963 21.3785 77.3245 21.2445 77.107 21.0736C76.8894 20.9027 76.7264 20.7039 76.6177 20.4775C76.509 20.251 76.4545 20.0085 76.4545 19.7497C76.4545 19.5371 76.4782 19.3408 76.5254 19.1606C76.5728 18.9805 76.6294 18.821 76.6956 18.6823C76.7713 18.516 76.8564 18.3635 76.9509 18.225C77.3481 18.1325 77.7689 18.0493 78.2132 17.9754C78.5914 17.9106 79.0169 17.8482 79.4896 17.7883C79.9624 17.7282 80.4398 17.6889 80.9221 17.6704V17.2545C80.9221 16.7184 80.8866 16.2749 80.8158 15.9237C80.7449 15.5726 80.6432 15.2953 80.5109 15.0921C80.3785 14.8887 80.2153 14.7478 80.0215 14.6692C79.8277 14.5908 79.6079 14.5514 79.362 14.5514C79.258 14.5514 79.1635 14.5583 79.0784 14.5722C78.9933 14.586 78.9176 14.6022 78.8514 14.6207C78.7758 14.6483 78.7097 14.6716 78.6529 14.69V16.7694C78.5867 16.7879 78.5252 16.8016 78.4685 16.811C78.4119 16.8202 78.3527 16.8272 78.2912 16.8317C78.2297 16.8364 78.1612 16.8386 78.0855 16.8386C77.764 16.8386 77.5064 16.744 77.3125 16.5546C77.1187 16.3651 77.0219 16.1133 77.0219 15.7989C77.0219 15.6049 77.0715 15.4177 77.1708 15.2376C77.27 15.0574 77.4261 14.8956 77.6389 14.7523C77.8515 14.6092 78.1234 14.4937 78.4544 14.4059C78.7852 14.3181 79.1824 14.2742 79.6456 14.2742ZM92.9776 15.7297C93.7908 15.7297 94.4786 15.7967 95.0411 15.9308C95.6038 16.0647 96.0576 16.2541 96.4027 16.499C96.7478 16.744 96.9961 17.042 97.1474 17.3932C97.2986 17.7444 97.3742 18.1371 97.3742 18.5714C97.3742 19.0058 97.2986 19.3986 97.1474 19.7497C96.9961 20.1009 96.7478 20.3989 96.4027 20.6438C96.0576 20.8888 95.6038 21.0782 95.0411 21.2122C94.4786 21.3463 93.7908 21.4132 92.9776 21.4132H89.0063V21.2053L89.8573 20.9973V12.1255L89.0063 11.9176V11.7096H96.5233V14.2048H96.0979C95.9181 14.0663 95.7621 13.8906 95.6298 13.6781C95.5162 13.4932 95.4124 13.2691 95.3177 13.0058C95.2232 12.7423 95.176 12.4258 95.176 12.0561H92.1975V15.7297H92.9776ZM92.1975 16.0763V21.0666H92.9776C93.5448 21.0666 94.0176 20.8587 94.3958 20.4429C94.7741 20.027 94.9632 19.4032 94.9632 18.5714C94.9632 17.7397 94.7741 17.1158 94.3958 16.7001C94.0176 16.2842 93.5448 16.0763 92.9776 16.0763H92.1975ZM101.133 18.1556C101.076 18.2757 101.029 18.4144 100.991 18.5714C100.953 18.7008 100.92 18.8534 100.892 19.0289C100.863 19.2044 100.849 19.3986 100.849 19.6111C100.849 20.1656 100.937 20.5584 101.111 20.7894C101.286 21.0204 101.482 21.136 101.7 21.136C101.917 21.136 102.104 21.0782 102.26 20.9626C102.416 20.8472 102.546 20.7201 102.65 20.5814C102.773 20.4151 102.882 20.2302 102.976 20.027V18.017C102.759 18.017 102.542 18.0239 102.324 18.0378C102.106 18.0516 101.908 18.0678 101.728 18.0863C101.52 18.114 101.322 18.1371 101.133 18.1556ZM101.7 14.2742C102.267 14.2742 102.771 14.3481 103.21 14.4959C103.65 14.6438 104.021 14.8494 104.324 15.1129C104.626 15.3762 104.856 15.6904 105.012 16.0555C105.168 16.4205 105.246 16.8202 105.246 17.2545V20.9973L106.097 21.2053V21.4132H104.82C104.48 21.4132 104.206 21.36 103.998 21.2537C103.79 21.1475 103.624 21.0298 103.501 20.9002C103.359 20.7432 103.255 20.5677 103.189 20.3735C103.066 20.6138 102.91 20.8218 102.721 20.9973C102.56 21.1545 102.348 21.2976 102.083 21.4271C101.818 21.5565 101.501 21.6211 101.133 21.6211C100.688 21.6211 100.303 21.5727 99.9768 21.4756C99.6507 21.3785 99.3787 21.2445 99.1613 21.0736C98.9437 20.9027 98.7807 20.7039 98.672 20.4775C98.5633 20.251 98.5088 20.0085 98.5088 19.7497C98.5088 19.5371 98.5324 19.3408 98.5797 19.1606C98.6271 18.9805 98.6837 18.821 98.7499 18.6823C98.8256 18.516 98.9107 18.3635 99.0052 18.225C99.4024 18.1325 99.8232 18.0493 100.267 17.9754C100.646 17.9106 101.071 17.8482 101.544 17.7883C102.017 17.7282 102.494 17.6889 102.976 17.6704V17.2545C102.976 16.7184 102.941 16.2749 102.87 15.9237C102.799 15.5726 102.697 15.2953 102.565 15.0921C102.433 14.8887 102.27 14.7478 102.076 14.6692C101.882 14.5908 101.662 14.5514 101.416 14.5514C101.312 14.5514 101.218 14.5583 101.133 14.5722C101.048 14.586 100.972 14.6022 100.906 14.6207C100.83 14.6483 100.764 14.6716 100.707 14.69V16.7694C100.641 16.7879 100.58 16.8016 100.523 16.811C100.466 16.8202 100.407 16.8272 100.346 16.8317C100.284 16.8364 100.215 16.8386 100.14 16.8386C99.8183 16.8386 99.5607 16.744 99.3669 16.5546C99.173 16.3651 99.0762 16.1133 99.0762 15.7989C99.0762 15.6049 99.1258 15.4177 99.2251 15.2376C99.3243 15.0574 99.4804 14.8956 99.6932 14.7523C99.9058 14.6092 100.178 14.4937 100.509 14.4059C100.84 14.3181 101.237 14.2742 101.7 14.2742ZM109.075 14.9674L108.082 14.69V14.482H114.677V14.69L113.826 14.8979V20.9973L114.677 21.2053V21.4132H110.706V21.2053L111.557 20.9973V14.8286H109.501L109.217 19.0566C109.188 19.528 109.122 19.9254 109.018 20.2487C108.914 20.5723 108.789 20.8356 108.642 21.0389C108.496 21.2423 108.333 21.3901 108.153 21.4825C107.973 21.575 107.784 21.6211 107.586 21.6211C107.16 21.6211 106.829 21.5103 106.593 21.2884C106.357 21.0666 106.238 20.7617 106.238 20.3735C106.238 20.0593 106.345 19.796 106.558 19.5833C106.77 19.3708 107.019 19.2645 107.302 19.2645C107.378 19.2645 107.446 19.2691 107.508 19.2784C107.569 19.2876 107.628 19.297 107.685 19.3061C107.742 19.3154 107.803 19.3246 107.87 19.334V21.2053C107.955 21.1683 108.047 21.1106 108.146 21.032C108.245 20.9534 108.337 20.8356 108.423 20.6785C108.508 20.5213 108.583 20.3111 108.65 20.0478C108.716 19.7844 108.763 19.4539 108.791 19.0566L109.075 14.9674ZM118.223 17.9476C118.544 17.9476 118.828 17.9407 119.074 17.9268C119.32 17.9131 119.528 17.8969 119.698 17.8783C119.896 17.8599 120.067 17.8368 120.208 17.8091C120.227 17.7166 120.251 17.6149 120.279 17.5041C120.298 17.4024 120.315 17.2892 120.329 17.1645C120.343 17.0397 120.35 16.908 120.35 16.7694C120.35 16.3535 120.317 16.0046 120.251 15.7228C120.185 15.4409 120.102 15.2121 120.003 15.0366C119.904 14.8611 119.79 14.7363 119.663 14.6623C119.535 14.5884 119.41 14.5514 119.287 14.5514C119.164 14.5514 119.038 14.5953 118.911 14.6831C118.783 14.7708 118.67 14.9372 118.57 15.1821C118.471 15.4271 118.388 15.7712 118.322 16.2148C118.256 16.6585 118.223 17.236 118.223 17.9476ZM119.641 21.6211C118.431 21.6211 117.49 21.2953 116.819 20.6438C116.147 19.9923 115.812 19.0936 115.812 17.9476C115.812 17.3747 115.897 16.8617 116.067 16.409C116.237 15.9561 116.474 15.5704 116.776 15.2514C117.079 14.9326 117.445 14.69 117.875 14.5236C118.306 14.3574 118.776 14.2742 119.287 14.2742C119.816 14.2742 120.291 14.3481 120.712 14.4959C121.133 14.6438 121.49 14.8425 121.783 15.0921C122.076 15.3416 122.3 15.635 122.456 15.9723C122.612 16.3096 122.69 16.6677 122.69 17.0466C122.69 17.1759 122.683 17.2892 122.669 17.3862C122.655 17.4833 122.639 17.5687 122.62 17.6427C122.591 17.7351 122.567 17.8137 122.549 17.8783C122.133 17.9615 121.693 18.0308 121.23 18.0863C120.832 18.1418 120.374 18.1903 119.854 18.2318C119.334 18.2735 118.79 18.2942 118.223 18.2942C118.223 18.8671 118.265 19.3454 118.351 19.7289C118.436 20.1125 118.554 20.4174 118.705 20.6438C118.856 20.8703 119.036 21.032 119.244 21.129C119.452 21.2261 119.679 21.2745 119.925 21.2745C120.208 21.2745 120.476 21.2238 120.726 21.1221C120.977 21.0204 121.194 20.8842 121.379 20.7133C121.563 20.5422 121.709 20.3481 121.818 20.131C121.927 19.9137 121.981 19.6943 121.981 19.4725H122.336C122.336 19.7497 122.272 20.0177 122.145 20.2766C122.017 20.5353 121.835 20.764 121.598 20.9626C121.362 21.1614 121.078 21.3209 120.747 21.4409C120.417 21.561 120.048 21.6211 119.641 21.6211ZM128.222 14.8286V20.9973L129.073 21.2053V21.4132H125.102V21.2053L125.952 20.9973V14.8286H124.889C124.889 15.1613 124.839 15.4547 124.74 15.7089C124.641 15.963 124.534 16.1826 124.421 16.3674C124.288 16.58 124.137 16.7601 123.967 16.908H123.541V14.482H130.633V16.908H130.207C130.028 16.7601 129.872 16.58 129.739 16.3674C129.626 16.1826 129.522 15.963 129.427 15.7089C129.333 15.4547 129.285 15.1613 129.285 14.8286H128.222ZM134.037 18.1556C133.98 18.2757 133.933 18.4144 133.895 18.5714C133.857 18.7008 133.824 18.8534 133.796 19.0289C133.767 19.2044 133.753 19.3986 133.753 19.6111C133.753 20.1656 133.841 20.5584 134.016 20.7894C134.19 21.0204 134.387 21.136 134.604 21.136C134.821 21.136 135.008 21.0782 135.164 20.9626C135.32 20.8472 135.45 20.7201 135.554 20.5814C135.677 20.4151 135.786 20.2302 135.881 20.027V18.017C135.663 18.017 135.446 18.0239 135.228 18.0378C135.011 18.0516 134.812 18.0678 134.633 18.0863C134.424 18.114 134.226 18.1371 134.037 18.1556ZM134.604 14.2742C135.171 14.2742 135.675 14.3481 136.115 14.4959C136.554 14.6438 136.925 14.8494 137.228 15.1129C137.53 15.3762 137.76 15.6904 137.916 16.0555C138.072 16.4205 138.15 16.8202 138.15 17.2545V20.9973L139.001 21.2053V21.4132H137.724C137.384 21.4132 137.11 21.36 136.902 21.2537C136.694 21.1475 136.528 21.0298 136.405 20.9002C136.263 20.7432 136.159 20.5677 136.093 20.3735C135.97 20.6138 135.814 20.8218 135.625 20.9973C135.465 21.1545 135.252 21.2976 134.987 21.4271C134.722 21.5565 134.406 21.6211 134.037 21.6211C133.592 21.6211 133.207 21.5727 132.881 21.4756C132.555 21.3785 132.283 21.2445 132.065 21.0736C131.848 20.9027 131.685 20.7039 131.576 20.4775C131.467 20.251 131.413 20.0085 131.413 19.7497C131.413 19.5371 131.437 19.3408 131.484 19.1606C131.531 18.9805 131.588 18.821 131.654 18.6823C131.73 18.516 131.815 18.3635 131.909 18.225C132.307 18.1325 132.727 18.0493 133.172 17.9754C133.55 17.9106 133.975 17.8482 134.448 17.7883C134.921 17.7282 135.398 17.6889 135.881 17.6704V17.2545C135.881 16.7184 135.845 16.2749 135.774 15.9237C135.703 15.5726 135.602 15.2953 135.469 15.0921C135.337 14.8887 135.174 14.7478 134.98 14.6692C134.786 14.5908 134.566 14.5514 134.32 14.5514C134.216 14.5514 134.122 14.5583 134.037 14.5722C133.952 14.586 133.876 14.6022 133.81 14.6207C133.734 14.6483 133.668 14.6716 133.611 14.69V16.7694C133.545 16.7879 133.484 16.8016 133.427 16.811C133.37 16.8202 133.311 16.8272 133.25 16.8317C133.188 16.8364 133.12 16.8386 133.044 16.8386C132.722 16.8386 132.465 16.744 132.271 16.5546C132.077 16.3651 131.98 16.1133 131.98 15.7989C131.98 15.6049 132.03 15.4177 132.129 15.2376C132.228 15.0574 132.385 14.8956 132.597 14.7523C132.81 14.6092 133.082 14.4937 133.413 14.4059C133.744 14.3181 134.141 14.2742 134.604 14.2742Z" fill="#F6F6F6"></path>
</svg>
